<?xml version="1.0" encoding="utf-8"?>

<!DOCTYPE svg PUBLIC "-//W3C//DTD SVG 1.1//EN" "http://www.w3.org/Graphics/SVG/1.1/DTD/svg11.dtd">
<!-- Uploaded to: SVG Repo, www.svgrepo.com, Generator: SVG Repo Mixer Tools -->
<svg height="800px" width="800px" version="1.1" id="_x32_" xmlns="http://www.w3.org/2000/svg" xmlns:xlink="http://www.w3.org/1999/xlink" 
	 viewBox="0 0 512 512"  xml:space="preserve">
<style type="text/css">
	.st0{fill:#000000;}
</style>
<g>
	<path class="st0" d="M222.882,473.866l-0.802-0.118c0,0-0.016,0-0.025,0L222.882,473.866z"/>
	<path class="st0" d="M428.001,479.216L512,461.19L441.259,149.77c-5.426-23.89-21.442-44.008-43.518-54.632l-57.358-27.628
		L329.066,49.18l-0.16-0.211c-3.038-4.202-7.013-7.518-11.629-9.822c-6.945-3.468-15.038-4.894-24.936-5.645
		c-9.916-0.726-21.755-0.717-36.337-0.717c-19.459,0.008-33.991-0.042-45.653,1.746c-5.831,0.912-11.004,2.295-15.62,4.616
		c-4.616,2.304-8.59,5.62-11.628,9.822l-0.144,0.195l-11.333,18.345l-57.358,27.628c-22.076,10.624-38.092,30.742-43.518,54.624
		L0,461.19l84.007,18.026l46.244-202.064l6.954,34.767l-23.392,123.306c-0.253,1.334-0.38,2.684-0.38,4.034
		c0,4.464,1.384,8.852,4.016,12.54c3.418,4.793,8.65,7.983,14.474,8.836l90.158,13.113c1.03,0.152,2.059,0.22,3.072,0.22
		c9.831,0,18.514-6.708,20.928-16.447l0.025,0.009l6.236-20.397l10.6,19.873c1.932,5.131,5.316,9.283,9.35,12.135
		c4.346,3.063,9.401,4.802,14.607,4.819c1.038,0,2.05-0.076,3.038-0.212l90.142-13.113c5.831-0.853,11.064-4.042,14.481-8.844
		c2.633-3.679,4.018-8.067,4.018-12.539c0-1.35-0.127-2.7-0.38-4.034l-23.392-123.298l6.954-34.76L428.001,479.216z
		 M381.328,246.518h-0.009c-0.726,0.026-1.114,0.118-1.131,0.11l0.018,0.102c-3.882,0.54-7.122,3.358-7.924,7.3l-11.57,57.813
		l8.406,44.32l-39.603,6.186l1.333,8.54l39.89-6.228l13.873,73.138l0.136,1.452c0,1.612-0.499,3.19-1.443,4.506
		c-1.241,1.747-3.114,2.886-5.224,3.199l-90.092,13.105h0.042l-1.131,0.076c-1.966,0.016-4.498-0.76-6.616-2.279
		c-2.135-1.51-3.823-3.646-4.658-6.219l-0.185-0.574l-18.759-35.172l-16.448-29.814v-114.2l17.131-40.446l0.852-0.296l-0.329-0.945
		l47.746-112.732c2.869-4.793,4.372-10.186,4.363-15.578c0.008-5.367-1.452-10.743-4.304-15.527l0.018-0.009
		c-0.034-0.068-0.085-0.118-0.118-0.186c-0.042-0.067-0.068-0.135-0.11-0.202l-0.016,0.016c-4.018-7.349-10.549-12.725-18.355-15.99
		c-7.966-3.359-17.256-4.802-27.544-4.811c-1.518,0-3.071,0.042-4.632,0.101c-1.578-0.068-3.13-0.101-4.658-0.101
		c-10.278,0.009-19.578,1.452-27.544,4.811c-7.797,3.274-14.336,8.632-18.337,15.983l-0.026-0.018
		c-0.05,0.076-0.084,0.169-0.126,0.245c-0.034,0.06-0.076,0.102-0.101,0.152l0.016,0.009c-2.86,4.784-4.312,10.152-4.312,15.518
		c0,5.334,1.468,10.658,4.278,15.409l38.962,112.42l-16.675,39.375v120.555l16.734,30.328l-10.337,33.772l-0.06,0.287
		c-0.784,3.612-4.016,6.126-7.594,6.126l-1.156-0.084h0.026l-90.1-13.105c-2.102-0.313-3.975-1.452-5.215-3.19
		c-0.954-1.325-1.452-2.911-1.452-4.506l0.144-1.443l13.882-73.155l39.881,6.228l1.333-8.54l-39.603-6.186l8.404-44.32
		l-11.569-57.805c-0.743-3.679-3.612-6.355-7.131-7.156l0.017-0.059c-0.844-0.262-1.654-0.312-2.051-0.312h-0.016
		c-4.38,0-8.161,3.054-9.122,7.274L73.577,462.837l-56.995-12.22l67.653-297.793c4.498-19.772,17.764-36.438,36.024-45.232
		l61.003-29.375l13.089-21.19c1.805-2.43,3.78-4.101,6.59-5.535c4.236-2.16,10.641-3.544,19.746-4.202
		c9.089-0.675,20.734-0.684,35.316-0.684c19.426-0.008,33.696,0.042,43.535,1.586c4.928,0.76,8.684,1.874,11.528,3.3
		c2.81,1.434,4.784,3.106,6.59,5.535l13.088,21.19l61.004,29.375c18.262,8.793,31.528,25.46,36.025,45.232l67.644,297.793
		l-56.986,12.227l-47.848-209.052c-0.962-4.228-4.751-7.291-9.122-7.282C381.403,246.511,381.386,246.518,381.328,246.518z
		 M251.136,210.696l-34.372-99.171l-0.455-0.692c-1.755-2.734-2.633-5.84-2.633-8.962c0-3.004,0.81-6,2.456-8.65l0.11-0.194
		l0.118-0.203c2.364-4.405,6.093-7.679,11.764-10.109c5.645-2.397,13.189-3.73,22.151-3.722c1.418,0,2.861,0.034,4.329,0.101
		l0.32,0.017l0.304-0.017c1.485-0.059,2.928-0.092,4.337-0.092c8.971-0.016,16.515,1.316,22.16,3.713
		c5.67,2.43,9.401,5.696,11.764,10.109l0.11,0.194l0.118,0.194c1.637,2.667,2.456,5.654,2.456,8.667
		c0,3.114-0.878,6.219-2.642,8.953l-0.321,0.506L251.136,210.696z"/>
	<path class="st0" d="M262.485,266.4c-4.725,0-8.556,3.84-8.556,8.549c0,4.726,3.832,8.565,8.556,8.565
		c4.717,0,8.558-3.839,8.558-8.565C271.042,270.24,267.202,266.4,262.485,266.4z"/>
	<path class="st0" d="M262.485,340.78c-4.725,0-8.556,3.83-8.556,8.556c0,4.726,3.832,8.556,8.556,8.556
		c4.717,0,8.558-3.83,8.558-8.556C271.042,344.61,267.202,340.78,262.485,340.78z"/>
</g>
</svg>