<?xml version="1.0"?>
<svg version="1.1" xmlns="http://www.w3.org/2000/svg" width="50px" height="30px" style="">

<path fill="#000000" d="M26.488,28.792l2.716-0.056q1.008,0,1.008,0.14q0,0.364-4.088,0.644q-2.604,5.096-2.604,6.944q0,1.288,0.812,1.288q0.308,0,0.77-0.378t0.56-0.378t0.098,0.14q-0.14,0.504-0.854,0.84t-1.204,0.336t-0.77-0.056q-0.672-0.252-0.672-1.624q0-2.828,2.156-7.196l-3.36,0.084q-3.752,3.668-7.532,6.44q-5.656,4.116-8.848,4.116q-0.196,0-0.392-0.028q-4.312-0.364-4.312-4.424q0-2.408,1.512-5.096q2.016-3.584,5.516-6.118t6.272-2.534t2.772,2.044q0,1.372-0.84,3.052t-1.708,2.128q-0.084,0.028-0.182,0.028t-0.098-0.056l0.924-1.512q0.952-1.484,0.952-2.604t-0.49-1.806t-1.554-0.686q-2.184,0-5.222,2.436t-4.62,5.992t-1.582,5.544q0,2.996,3.052,2.996q2.912,0,7.896-3.752q2.212-1.652,7.196-6.244q-0.98,0.056-1.82,0.196q-1.792,0.336-1.68-0.112q0.112-1.036,1.064-1.036q1.848,0.224,3.108,0.224q2.408-2.212,7.196-7.252q3.22-3.388,3.92-3.388q0.308,0,0.308,0.476t-0.252,1.484t-0.56,1.232q-0.644,0.448-1.204,1.218t-1.596,2.884t-1.764,3.43z M28.728,21.96l-7.168,6.72l1.652,0q0.588,0.028,1.456,0.028q0.812-1.596,4.06-6.748z"/>
<path fill="#" d=""/>
</svg>
